<?xml version="1.0" encoding="UTF-8"?>
<svg width="394px" height="382px" viewBox="0 0 394 382" version="1.1" xmlns="http://www.w3.org/2000/svg" xmlns:xlink="http://www.w3.org/1999/xlink">
    <title>logo</title>
    <g id="Page-1" stroke="none" stroke-width="1" fill="none" fill-rule="evenodd">
        <g id="logo" transform="translate(0.1527, 0.1407)">
            <g id="Group" transform="translate(209.8473, 0)">
                <path d="M11.1281226,137.383812 L11.1281226,0 C43.3374928,2.74347634 72.1261042,9.98774092 97.4939567,21.7327937 C122.861809,33.4778466 143.858866,47.3640667 160.485127,63.3914541 L11.1281226,137.383812 Z" id="Path" fill="#000000"></path>
                <polygon id="Rectangle" fill="#A39F9F" points="2.82459281e-13 63.8932385 11.1281226 0 11.1281226 137.383812 0 216.003947"></polygon>
                <polygon id="Rectangle-2" fill="#D8D8D8" points="11.1281226 137.383812 160.485127 63.3914541 149.988367 129.747223 -1.15410356e-13 216.003947"></polygon>
            </g>
            <g id="Group" transform="translate(0, 39.3504)">
                <path d="M9.8473285,116.497503 L1.39792324,164.508954 C-2.3458928,195.548579 1.43010241,220.714327 12.7259089,240.006196 C29.6696185,268.944 48.4875347,287.273713 76.6351104,305.151078 C104.782686,323.028443 139.667073,332.464294 174.757201,338.623386 C209.847328,344.782478 265.65277,341.25886 291.673762,330.020516 C317.694755,318.782172 330.808684,310.741978 343.348905,299.687056 C355.889125,288.632133 369.561593,272.522783 372.908686,262.955917 C376.255779,253.389052 382.796884,231.688801 385.36616,214.611318 C387.079011,203.22633 389.663573,185.399992 393.119845,161.132304 L9.8473285,116.497503 Z" id="Path" fill="#C4C4C4"></path>
                <path d="M221.154643,276.062744 C352.853974,279.694952 393.119845,202.429647 393.119845,151.865286 C393.119845,126.621259 379.447515,93.2483548 350.568098,64.199274 C350.568098,64.199274 201.483587,138.093151 201.483587,138.093151 C201.483587,138.093151 201.302491,0.859398437 201.302491,0.859398437 C87.3590812,-8.0323797 9.8473285,53.4407592 9.8473285,122.008954 C9.8473285,193.529829 89.4553125,272.430536 221.154643,276.062744 Z" id="Oval" fill="#4849D2"></path>
            </g>
        </g>
    </g>
</svg>